<svg width="349" height="349" viewBox="0 0 349 349" fill="none" xmlns="http://www.w3.org/2000/svg">
<path d="M161.546 332.37L158.773 332.03L154.209 343.017L152.528 331.262L149.624 330.905L143.797 346.038L146.505 346.371L150.716 335.185L152.4 347.095L154.802 347.39L159.246 336.299L160.545 348.096L163.515 348.46L161.546 332.37Z" fill="white"/>
<path d="M139.025 328.935L136.376 328.197L134.144 331.617L128.358 330.004L128.196 325.917L125.271 325.102L126.05 341.648L129.737 342.676L139.025 328.935ZM128.707 339.899L128.442 332.243L132.914 333.489L128.707 339.899Z" fill="white"/>
<path d="M115.156 321.265L112.433 320.136L107.289 332.531L103.246 330.853L102.36 332.986L113.17 337.472L114.056 335.339L110.012 333.661L115.156 321.265Z" fill="white"/>
<path d="M95.9662 311.712C92.7168 309.86 89.4372 310.194 87.1623 313.253L89.6472 314.669C91.0149 312.891 92.8975 312.698 94.7898 313.776C97.3129 315.214 97.7499 317.869 95.9962 320.946L95.909 321.099C94.1662 324.157 91.5314 325.137 89.123 323.765C87.1543 322.643 86.6749 321.129 87.423 319.15L84.8426 317.679C83.3185 321.065 84.8528 324.015 87.9875 325.802C91.7912 327.969 96.254 326.714 98.5959 322.605L98.6831 322.452C101.079 318.247 100.248 314.152 95.9662 311.712Z" fill="white"/>
<path d="M83.2736 304.076L80.9533 302.294L76.8788 307.597L71.2786 303.295L75.3531 297.992L73.0153 296.196L63.4323 308.67L65.7701 310.466L69.8445 305.162L75.4447 309.464L71.3703 314.768L73.6906 316.55L83.2736 304.076Z" fill="white"/>
<path d="M55.4059 278.523C53.1154 275.908 49.988 275.577 47.9361 277.375C45.5697 279.448 46.0366 281.583 48.0915 284.697C49.5912 287.01 49.4593 287.827 48.4995 288.668C47.5893 289.465 46.3351 289.336 45.1608 287.995C43.9721 286.639 43.8783 285.463 44.9309 284.161L43.1623 282.142C41.0981 284.36 41.2735 286.897 43.506 289.445C45.666 291.911 48.572 292.29 50.5081 290.594C52.7256 288.651 52.4118 286.557 50.3134 283.394C48.9462 281.199 48.8815 280.29 49.9737 279.333C51.0659 278.377 52.6058 278.666 53.7511 279.973C55.5052 281.975 54.9327 283.325 53.8717 284.518L55.7273 286.636C57.8164 284.513 58.2328 281.75 55.4059 278.523Z" fill="white"/>
<path d="M46.7564 268.321L45.1245 265.893L39.5733 269.623L35.6345 263.761L41.1857 260.031L39.5414 257.584L26.4853 266.358L28.1296 268.805L33.6807 265.074L37.6195 270.936L32.0684 274.666L33.7003 277.095L46.7564 268.321Z" fill="white"/>
<path d="M30.046 244.452C31.2937 247.025 30.2061 249.875 27.118 251.372L26.9596 251.449C23.911 252.927 21.0754 252.273 19.7317 249.501C18.388 246.73 19.7587 244.06 22.6687 242.65L22.8271 242.573C25.8955 241.085 28.7503 241.779 30.046 244.452ZM32.1834 243.464C30.1006 239.169 25.6201 237.845 21.4828 239.851L21.3244 239.927C17.1673 241.943 15.589 246.302 17.6333 250.519C19.6681 254.715 24.1762 256.197 28.3135 254.191L28.4719 254.114C32.5498 252.137 34.2853 247.8 32.1834 243.464Z" fill="white"/>
<path d="M24.8838 226.834L24.0697 224.161L12.1756 224.449L22.2365 218.142L21.3839 215.343L5.18902 216.159L5.98386 218.769L17.9163 218.078L7.71456 224.451L8.41967 226.766L20.3595 226.326L10.1055 232.301L10.9773 235.163L24.8838 226.834Z" fill="white"/>
<path d="M17.09 192.92L16.8542 190.004L10.5169 190.516L10.3662 188.652L16.3721 184.039L16.1169 180.881L9.69724 185.837C9.03514 183.926 7.66114 182.492 5.20515 182.69L5.11744 182.697C1.91588 182.956 0.707423 185.482 0.985697 188.924L1.41108 194.187L17.09 192.92ZM8.43368 190.684L3.43398 191.088L3.24433 188.742C3.09367 186.878 3.61728 185.71 5.41541 185.565L5.50313 185.558C7.16969 185.423 8.08628 186.386 8.24403 188.338L8.43368 190.684Z" fill="white"/>
<path d="M16.0547 173.211L16.44 163.01L14.1317 162.923L13.8568 170.2L9.26209 170.026L9.47134 164.486L7.27291 164.403L7.06366 169.943L2.75473 169.781L3.01547 162.878L0.707111 162.79L0.335938 172.617L16.0547 173.211Z" fill="white"/>
<path d="M17.1932 155.496L18.7179 145.402L16.4339 145.057L15.3462 152.258L10.7997 151.571L11.6278 146.089L9.45251 145.761L8.62443 151.242L4.3608 150.598L5.39262 143.768L3.10853 143.423L1.63967 153.146L17.1932 155.496Z" fill="white"/>
<path d="M20.307 138.019L22.8038 128.713L20.5514 128.108L18.8128 134.589L5.87237 131.118L5.11422 133.944L20.307 138.019Z" fill="white"/>
<path d="M24.6122 109.344L26.8 104.539L24.7978 103.627L22.6099 108.433L24.6122 109.344Z" fill="white"/>
<path d="M41.8301 87.777L43.4545 85.5037L35.9833 76.2444L47.1126 80.3844L48.8137 78.0037L38.3049 65.6544L36.7188 67.874L44.5327 76.9186L33.2654 72.7069L31.8584 74.6759L39.4779 83.879L28.4945 79.3836L26.755 81.8179L41.8301 87.777Z" fill="white"/>
<path d="M55.6087 69.6349L57.5231 67.6607L55.5851 64.0655L59.7661 59.7537L63.4346 61.5642L65.5481 59.3846L50.641 52.1618L47.9762 54.91L55.6087 69.6349ZM50.9076 55.3316L57.7593 58.7577L54.5279 62.0903L50.9076 55.3316Z" fill="white"/>
<path d="M73.7487 52.3309L76.0423 50.4788L67.6115 40.0377L71.0177 37.2873L69.5665 35.4901L60.4605 42.8429L61.9117 44.6401L65.3179 41.8897L73.7487 52.3309Z" fill="white"/>
<path d="M91.3141 40.039C94.4934 38.0694 95.7671 35.0288 94.1671 31.5688L91.7358 33.0749C92.6441 35.1261 91.9143 36.8722 90.0628 38.0192C87.5941 39.5485 85.0534 38.664 83.1881 35.6529L83.0954 35.5033C81.2416 32.511 81.6398 29.7282 83.9962 28.2683C85.9225 27.075 87.4814 27.3773 88.8626 28.9802L91.3874 27.4161C89.1417 24.4595 85.8165 24.3974 82.7494 26.2975C79.0277 28.6031 77.9977 33.1231 80.4887 37.1441L80.5814 37.2937C83.1303 41.4081 87.1248 42.6343 91.3141 40.039Z" fill="white"/>
<path d="M104.084 32.5389L106.759 31.3523L104.047 25.2389L110.502 22.3752L113.214 28.4886L115.909 27.2932L109.53 12.9145L106.836 14.11L109.548 20.2234L103.092 23.0871L100.38 16.9737L97.7057 18.1602L104.084 32.5389Z" fill="white"/>
<path d="M139.85 20.266C143.241 19.5032 145.026 16.9144 144.428 14.2528C143.737 11.1835 141.638 10.5732 137.921 10.8906C135.173 11.1029 134.518 10.5963 134.238 9.35137C133.972 8.17086 134.686 7.13101 136.424 6.73999C138.184 6.34413 139.262 6.82339 139.903 8.37042L142.521 7.78147C141.559 4.90851 139.247 3.85017 135.941 4.59361C132.743 5.3129 131.022 7.68447 131.587 10.1957C132.233 13.0719 134.223 13.797 138.004 13.4651C140.586 13.313 141.415 13.6903 141.733 15.1069C142.052 16.5235 141.063 17.7382 139.367 18.1196C136.77 18.7037 135.858 17.5559 135.317 16.0539L132.57 16.6719C133.436 19.5212 135.664 21.2073 139.85 20.266Z" fill="white"/>
<path d="M152.945 17.5429L155.858 17.2698L155.234 10.611L162.265 9.95184L162.889 16.6106L165.824 16.3355L164.356 0.674143L161.421 0.949316L162.045 7.60812L155.014 8.2673L154.39 1.6085L151.477 1.88162L152.945 17.5429Z" fill="white"/>
<path d="M181.898 14.2689C179.041 14.1352 177.057 11.818 177.218 8.38976L177.226 8.21396C177.384 4.82966 179.314 2.65145 182.391 2.79535C185.467 2.93925 187.157 5.41892 187.006 8.64939L186.998 8.8252C186.839 12.2315 184.865 14.4076 181.898 14.2689ZM181.744 16.6182C186.513 16.8413 189.817 13.5381 190.032 8.94507L190.04 8.76926C190.256 4.15431 187.181 0.684837 182.5 0.465897C177.841 0.247985 174.385 3.50008 174.17 8.09306L174.162 8.26886C173.95 12.7959 176.931 16.3931 181.744 16.6182Z" fill="white"/>
<path d="M199.84 18.152L202.577 18.714L208.007 8.12795L208.74 19.9796L211.607 20.5682L218.628 5.9519L215.956 5.40315L210.861 16.2153L210.137 4.20829L207.767 3.7215L202.448 14.4203L202.099 2.55762L199.168 1.95577L199.84 18.152Z" fill="white"/>
<path d="M233.355 27.5137L236.029 28.7002L238.608 22.8884L240.317 23.6467L241.499 31.1268L244.395 32.4114L243.11 24.4043C245.105 24.7357 247.021 24.2139 248.02 21.9616L248.056 21.8812C249.358 18.9451 247.717 16.6767 244.56 15.2761L239.733 13.135L233.355 27.5137ZM239.455 20.9779L241.489 16.3929L243.641 17.3474C245.35 18.1057 246.126 19.1238 245.394 20.7728L245.359 20.8533C244.681 22.3816 243.397 22.7265 241.607 21.9325L239.455 20.9779Z" fill="white"/>
<path d="M251.165 36.0197L259.942 41.2325L261.122 39.2463L254.861 35.5278L257.209 31.5745L261.975 34.4055L263.099 32.514L258.332 29.6829L260.534 25.9755L266.473 29.5031L267.653 27.517L259.198 22.4953L251.165 36.0197Z" fill="white"/>
<path d="M266.183 45.4847L274.321 51.6471L275.716 49.8055L269.91 45.4095L272.686 41.7438L277.106 45.0907L278.434 43.3368L274.014 39.9899L276.617 36.5523L282.125 40.7226L283.519 38.881L275.679 32.9444L266.183 45.4847Z" fill="white"/>
<path d="M280.046 56.5712L287.029 63.2117L288.636 61.5218L283.773 56.8977L293.006 47.1891L290.886 45.1727L280.046 56.5712Z" fill="white"/>
<path d="M303.177 74.0559L306.353 78.274L308.11 76.9507L304.935 72.7326L303.177 74.0559Z" fill="white"/>
<path d="M313.898 99.4853L315.119 101.998L326.823 99.8599L317.868 107.658L319.146 110.29L335.016 106.96L333.824 104.506L322.145 107.048L331.229 99.1627L330.171 96.9859L318.446 99.2816L327.643 91.7814L326.336 89.0901L313.898 99.4853Z" fill="white"/>
<path d="M323.251 120.258L324.071 122.883L328.155 122.898L329.945 128.632L326.602 130.989L327.506 133.887L340.974 124.243L339.834 120.589L323.251 120.258ZM338.063 122.963L331.779 127.345L330.395 122.914L338.063 122.963Z" fill="white"/>
<path d="M329.78 144.464L330.311 147.364L343.512 144.947L344.3 149.253L346.573 148.837L344.465 137.325L342.193 137.741L342.981 142.047L329.78 144.464Z" fill="white"/>
<path d="M332.188 165.765C332.399 169.499 334.461 172.071 338.265 172.319L338.104 169.463C335.868 169.281 334.683 167.806 334.56 165.631C334.396 162.732 336.387 160.923 339.924 160.723L340.099 160.713C343.614 160.514 345.868 162.194 346.024 164.961C346.152 167.224 345.142 168.449 343.074 168.896L343.241 171.861C346.912 171.301 348.555 168.41 348.352 164.808C348.105 160.437 344.626 157.372 339.904 157.639L339.728 157.649C334.896 157.922 331.91 160.845 332.188 165.765Z" fill="white"/>
<path d="M332.674 180.569L332.439 183.485L339.105 184.024L338.536 191.063L331.87 190.524L331.632 193.462L347.311 194.73L347.549 191.791L340.882 191.253L341.451 184.213L348.118 184.752L348.353 181.836L332.674 180.569Z" fill="white"/>
<path d="M326.366 217.851C325.416 221.194 326.837 224 329.461 224.745C332.487 225.606 334.026 224.053 335.523 220.637C336.65 218.121 337.408 217.787 338.636 218.136C339.8 218.467 340.372 219.591 339.885 221.305C339.392 223.04 338.456 223.757 336.79 223.581L336.057 226.163C339.04 226.691 341.075 225.165 342.001 221.906C342.897 218.753 341.637 216.108 339.161 215.404C336.325 214.598 334.737 215.999 333.222 219.479C332.122 221.82 331.395 222.368 329.998 221.971C328.601 221.574 328.007 220.124 328.482 218.452C329.21 215.892 330.654 215.639 332.232 215.881L333.002 213.173C330.085 212.572 327.539 213.724 326.366 217.851Z" fill="white"/>
<path d="M322.501 230.654L321.348 233.344L327.496 235.977L324.715 242.469L318.568 239.835L317.407 242.545L331.866 248.739L333.027 246.029L326.879 243.396L329.66 236.904L335.808 239.538L336.96 236.848L322.501 230.654Z" fill="white"/>
<path d="M311.542 257.653C313.025 255.207 316.008 254.572 318.943 256.351L319.094 256.442C321.991 258.198 322.982 260.934 321.386 263.568C319.789 266.202 316.803 266.502 314.038 264.825L313.887 264.734C310.971 262.967 310.003 260.193 311.542 257.653ZM309.552 256.395C307.077 260.478 308.4 264.958 312.332 267.342L312.483 267.433C316.434 269.828 320.951 268.784 323.38 264.777C325.797 260.788 324.592 256.199 320.66 253.815L320.509 253.724C316.634 251.375 312.049 252.275 309.552 256.395Z" fill="white"/>
<path d="M299.556 271.56L297.754 273.695L304.459 283.524L293.698 278.505L291.811 280.741L301.295 293.894L303.054 291.808L295.991 282.166L306.884 287.268L308.445 285.418L301.588 275.634L312.175 280.996L314.105 278.709L299.556 271.56Z" fill="white"/>
<path d="M275.319 296.527L272.998 298.309L276.872 303.351L275.389 304.491L268.253 301.955L265.741 303.885L273.389 306.582C272.144 308.176 271.687 310.109 273.188 312.063L273.242 312.132C275.199 314.68 277.976 314.322 280.715 312.218L284.902 309.001L275.319 296.527ZM278.145 305.009L281.201 308.986L279.334 310.421C277.851 311.56 276.586 311.755 275.487 310.324L275.434 310.254C274.415 308.929 274.726 307.636 276.278 306.443L278.145 305.009Z" fill="white"/>
<path d="M259.337 308.107L250.564 313.326L251.745 315.311L258.004 311.588L260.354 315.54L255.59 318.374L256.715 320.265L261.479 317.43L263.684 321.136L257.747 324.668L258.928 326.653L267.379 321.626L259.337 308.107Z" fill="white"/>
<path d="M243.844 316.777L234.541 320.981L235.493 323.086L242.129 320.087L244.022 324.277L238.97 326.56L239.876 328.565L244.928 326.282L246.704 330.211L240.409 333.056L241.361 335.161L250.322 331.111L243.844 316.777Z" fill="white"/>
<path d="M227.481 323.658L218.311 326.619L219.027 328.838L225.413 326.776L229.529 339.526L232.314 338.627L227.481 323.658Z" fill="white"/>
<path d="M196.168 337.11L190.945 337.884L191.267 340.061L196.49 339.286L196.168 337.11Z" fill="white"/>
</svg>
